<svg width="32" height="31" viewBox="0 0 32 31" fill="none" xmlns="http://www.w3.org/2000/svg">
<path fill-rule="evenodd" clip-rule="evenodd" d="M0 0.753786V1.50757H1.80489H3.60984L3.67059 1.74313C4.44616 4.74961 7.83969 17.3867 9.21163 22.3774L9.79426 24.4968L9.50651 24.6827C8.88976 25.0812 8.3545 25.8081 8.12281 26.5619C8.03744 26.8396 8.00006 27.1422 8.00006 27.5559C8.00006 28.7778 8.55144 29.7896 9.5912 30.4755C10.8466 31.3036 12.6468 31.1345 13.741 30.0857C14.4452 29.4106 14.8129 28.584 14.8294 27.6388C14.8407 26.9925 14.7434 26.5519 14.4651 25.9899L14.2552 25.5659H18.6016C20.9922 25.5659 22.9387 25.5875 22.9272 25.6138C22.9158 25.6402 22.8299 25.8168 22.7364 26.0064C22.0684 27.3612 22.3304 28.9364 23.3996 29.9944C24.1016 30.689 24.8079 30.984 25.7815 30.9889C27.1175 30.9958 28.2666 30.2906 28.8596 29.0999C29.5469 27.7197 29.2881 26.1794 28.1822 25.0679C27.7242 24.6075 26.9886 24.2237 26.3752 24.1248C26.1101 24.082 23.4139 24.0591 18.6171 24.0589L11.2653 24.0584L11.1656 23.6658C11.1108 23.4499 10.9995 23.0329 10.9182 22.7392L10.7705 22.2053L18.401 22.2243C23.9369 22.238 26.1337 22.2234 26.404 22.1714C27.2005 22.0178 28.0477 21.3926 28.4255 20.6796C28.5649 20.4163 29.066 18.635 30.3079 13.9871C31.2387 10.5035 32.0001 7.59201 32 7.51707C31.9996 7.29577 31.7637 6.97177 31.5321 6.87453C31.3472 6.79683 29.5711 6.78408 18.9465 6.78408H6.57624L6.43768 6.26585C5.38435 2.32644 4.86341 0.462636 4.7796 0.334116C4.57404 0.0187819 4.42503 0 2.12702 0H0V0.753786ZM30.2217 8.46439C30.1985 8.55937 29.5059 11.1812 28.6825 14.2905C27.0263 20.5451 27.1125 20.2954 26.5001 20.6192L26.1735 20.7919L18.6649 20.7906C11.504 20.7892 11.1448 20.7838 10.9063 20.6735C10.6341 20.5474 10.3867 20.3359 10.2295 20.0948C10.1743 20.0101 9.59614 17.9911 8.94476 15.6081C7.84075 11.5693 7.04024 8.65925 6.96237 8.40158C6.9308 8.29718 7.51375 8.29165 18.5965 8.29165H30.2638L30.2217 8.46439ZM12.2733 25.7791C12.6687 25.9735 13.0207 26.3392 13.2097 26.7518C13.4148 27.1996 13.3989 28.0023 13.1765 28.424C12.8309 29.0794 12.2485 29.462 11.5238 29.5095C10.9354 29.5482 10.5401 29.4153 10.1235 29.0388C8.72169 27.7721 9.6457 25.4773 11.5133 25.587C11.8025 25.604 12.0385 25.6637 12.2733 25.7791ZM26.6751 25.7793C27.372 26.1343 27.7626 26.7663 27.7676 27.5471C27.7701 27.9437 27.7422 28.0672 27.5703 28.4182C27.1978 29.1786 26.5435 29.5573 25.6853 29.5092C24.8994 29.4651 24.3529 29.0816 24.0092 28.3327C23.5894 27.418 23.9907 26.2712 24.8925 25.8081C25.3084 25.5946 25.4395 25.567 25.9133 25.5932C26.2306 25.6107 26.4485 25.6639 26.6751 25.7793Z" fill="white"/>
</svg>
